<mxfile host="app.diagrams.net" modified="2021-12-20T17:42:40.245Z" agent="5.0 (Windows NT 10.0; Win64; x64) AppleWebKit/537.36 (KHTML, like Gecko) Chrome/96.0.4664.110 Safari/537.36" etag="YcV7LgUmb9i_LRK31DFg" version="16.0.0" type="github">
  <diagram id="wFE0QG_FPsp0jaGvCLVb" name="Page-1">
    <mxGraphModel dx="1889" dy="763" grid="1" gridSize="10" guides="1" tooltips="1" connect="1" arrows="1" fold="1" page="1" pageScale="1" pageWidth="850" pageHeight="1100" math="0" shadow="0">
      <root>
        <mxCell id="0" />
        <mxCell id="1" parent="0" />
        <mxCell id="GQajFrsuyB6NHDww1tuL-7" value="&lt;span style=&quot;font-size: 24px;&quot;&gt;Binary Decision Tree&lt;/span&gt;" style="html=1;rounded=1;fontSize=24;fillColor=#16B4FF;strokeColor=none;gradientColor=none;opacity=70;fontStyle=0" parent="1" vertex="1">
          <mxGeometry x="-150" y="770" width="270" height="60" as="geometry" />
        </mxCell>
        <mxCell id="GQajFrsuyB6NHDww1tuL-8" style="edgeStyle=orthogonalEdgeStyle;rounded=0;orthogonalLoop=1;jettySize=auto;html=1;endArrow=diamondThin;endFill=1;exitX=0;exitY=0.5;exitDx=0;exitDy=0;entryX=1;entryY=0.25;entryDx=0;entryDy=0;endSize=16;strokeColor=default;fontSize=24;fontStyle=0" parent="1" source="tZ7djmpZorgxgHxO5tKS-36" target="GQajFrsuyB6NHDww1tuL-7" edge="1">
          <mxGeometry relative="1" as="geometry">
            <mxPoint x="350" y="591" as="sourcePoint" />
            <Array as="points">
              <mxPoint x="170" y="610" />
              <mxPoint x="170" y="785" />
            </Array>
          </mxGeometry>
        </mxCell>
        <mxCell id="GQajFrsuyB6NHDww1tuL-9" style="edgeStyle=orthogonalEdgeStyle;rounded=0;orthogonalLoop=1;jettySize=auto;html=1;entryX=1;entryY=0.5;entryDx=0;entryDy=0;endArrow=diamondThin;endFill=1;endSize=16;strokeColor=default;exitX=0;exitY=0.5;exitDx=0;exitDy=0;fontSize=24;fontStyle=0" parent="1" source="tZ7djmpZorgxgHxO5tKS-47" target="GQajFrsuyB6NHDww1tuL-7" edge="1">
          <mxGeometry relative="1" as="geometry">
            <mxPoint x="360" y="800" as="sourcePoint" />
          </mxGeometry>
        </mxCell>
        <mxCell id="GQajFrsuyB6NHDww1tuL-10" style="edgeStyle=orthogonalEdgeStyle;rounded=0;orthogonalLoop=1;jettySize=auto;html=1;endArrow=diamondThin;endFill=1;exitX=0;exitY=0.5;exitDx=0;exitDy=0;endSize=16;strokeColor=default;entryX=1;entryY=0.75;entryDx=0;entryDy=0;fontSize=24;fontStyle=0" parent="1" source="tZ7djmpZorgxgHxO5tKS-60" target="GQajFrsuyB6NHDww1tuL-7" edge="1">
          <mxGeometry relative="1" as="geometry">
            <mxPoint x="370" y="1200" as="sourcePoint" />
            <mxPoint x="130" y="840" as="targetPoint" />
            <Array as="points">
              <mxPoint x="170" y="1060" />
              <mxPoint x="170" y="815" />
            </Array>
          </mxGeometry>
        </mxCell>
        <mxCell id="tZ7djmpZorgxgHxO5tKS-36" value="Node Label" style="html=1;rounded=1;fontSize=24;fillColor=#fad9d5;strokeColor=none;rotation=0;fontStyle=0" parent="1" vertex="1">
          <mxGeometry x="200" y="580" width="250" height="60" as="geometry" />
        </mxCell>
        <mxCell id="tZ7djmpZorgxgHxO5tKS-29" value="" style="ellipse;fillColor=default;strokeColor=default;fontSize=24;rotation=0;fontStyle=0" parent="1" vertex="1">
          <mxGeometry x="520" y="596" width="30" height="30" as="geometry" />
        </mxCell>
        <mxCell id="tZ7djmpZorgxgHxO5tKS-30" value="" style="endArrow=none;html=1;rounded=0;entryX=1;entryY=0.5;entryDx=0;entryDy=0;fontSize=24;strokeColor=default;fontStyle=0" parent="1" target="tZ7djmpZorgxgHxO5tKS-29" edge="1">
          <mxGeometry relative="1" as="geometry">
            <mxPoint x="600" y="611" as="sourcePoint" />
            <mxPoint x="700" y="611" as="targetPoint" />
          </mxGeometry>
        </mxCell>
        <mxCell id="tZ7djmpZorgxgHxO5tKS-46" value="Average for each Algorithm" style="html=1;rounded=1;fontSize=24;fillColor=#fad9d5;strokeColor=none;rotation=0;opacity=70;fontStyle=0" parent="1" vertex="1">
          <mxGeometry x="600" y="580" width="390" height="60" as="geometry" />
        </mxCell>
        <mxCell id="tZ7djmpZorgxgHxO5tKS-47" value="Stopping Criterion" style="html=1;rounded=1;fontSize=24;fillColor=#fad7ac;strokeColor=none;rotation=0;opacity=80;fontStyle=0" parent="1" vertex="1">
          <mxGeometry x="200" y="770" width="250" height="60" as="geometry" />
        </mxCell>
        <mxCell id="tZ7djmpZorgxgHxO5tKS-52" value="" style="ellipse;fillColor=default;strokeColor=default;fontSize=24;rotation=0;fontStyle=0" parent="1" vertex="1">
          <mxGeometry x="520" y="760" width="30" height="30" as="geometry" />
        </mxCell>
        <mxCell id="tZ7djmpZorgxgHxO5tKS-53" value="" style="endArrow=none;html=1;rounded=0;entryX=1;entryY=0;entryDx=0;entryDy=0;fontSize=24;strokeColor=default;exitX=0;exitY=0.5;exitDx=0;exitDy=0;fontStyle=0" parent="1" source="tZ7djmpZorgxgHxO5tKS-54" target="tZ7djmpZorgxgHxO5tKS-52" edge="1">
          <mxGeometry relative="1" as="geometry">
            <mxPoint x="830" y="750" as="sourcePoint" />
            <mxPoint x="740" y="750" as="targetPoint" />
          </mxGeometry>
        </mxCell>
        <mxCell id="tZ7djmpZorgxgHxO5tKS-54" value="Combined Loss under Threshold" style="html=1;rounded=1;fontSize=24;fillColor=#fad7ac;strokeColor=none;rotation=0;opacity=50;fontStyle=0" parent="1" vertex="1">
          <mxGeometry x="600" y="700" width="390" height="60" as="geometry" />
        </mxCell>
        <mxCell id="tZ7djmpZorgxgHxO5tKS-56" value="" style="ellipse;fillColor=default;strokeColor=default;fontSize=24;rotation=0;fontStyle=0" parent="1" vertex="1">
          <mxGeometry x="520" y="809" width="30" height="30" as="geometry" />
        </mxCell>
        <mxCell id="tZ7djmpZorgxgHxO5tKS-57" value="" style="endArrow=none;html=1;rounded=0;entryX=0.736;entryY=0.96;entryDx=0;entryDy=0;fontSize=24;strokeColor=default;exitX=0;exitY=0.5;exitDx=0;exitDy=0;entryPerimeter=0;fontStyle=0" parent="1" source="tZ7djmpZorgxgHxO5tKS-58" target="tZ7djmpZorgxgHxO5tKS-56" edge="1">
          <mxGeometry relative="1" as="geometry">
            <mxPoint x="590" y="829" as="sourcePoint" />
            <mxPoint x="740" y="849" as="targetPoint" />
          </mxGeometry>
        </mxCell>
        <mxCell id="tZ7djmpZorgxgHxO5tKS-58" value="Max Depth" style="html=1;rounded=1;fontSize=24;fillColor=#fad7ac;strokeColor=none;rotation=0;opacity=50;fontStyle=0" parent="1" vertex="1">
          <mxGeometry x="600" y="839" width="390" height="60" as="geometry" />
        </mxCell>
        <mxCell id="tZ7djmpZorgxgHxO5tKS-59" value="&lt;font style=&quot;font-size: 24px;&quot;&gt;&lt;span style=&quot;font-size: 24px;&quot;&gt;.&amp;nbsp; .&amp;nbsp; .&lt;/span&gt;&lt;/font&gt;" style="text;html=1;align=center;verticalAlign=middle;resizable=0;points=[];autosize=1;strokeColor=none;fillColor=none;fontSize=24;rotation=0;horizontal=0;fontStyle=0" parent="1" vertex="1">
          <mxGeometry x="750" y="775" width="40" height="50" as="geometry" />
        </mxCell>
        <mxCell id="tZ7djmpZorgxgHxO5tKS-60" value="Splitting Criterion" style="html=1;rounded=1;fontSize=24;fillColor=#b0e3e6;strokeColor=none;rotation=0;fontStyle=0" parent="1" vertex="1">
          <mxGeometry x="200" y="1030" width="240" height="60" as="geometry" />
        </mxCell>
        <mxCell id="tZ7djmpZorgxgHxO5tKS-67" value="Combined Loss Function" style="html=1;rounded=1;fontSize=24;fillColor=#b0e3e6;rotation=0;strokeColor=none;fontStyle=0" parent="1" vertex="1">
          <mxGeometry x="610" y="1030" width="390" height="60" as="geometry" />
        </mxCell>
        <mxCell id="tZ7djmpZorgxgHxO5tKS-114" value="" style="ellipse;fontSize=24;rotation=0;rounded=0;strokeColor=default;fontStyle=0" parent="1" vertex="1">
          <mxGeometry x="1410" y="935" width="30" height="30" as="geometry" />
        </mxCell>
        <mxCell id="tZ7djmpZorgxgHxO5tKS-115" value="" style="endArrow=none;html=1;rounded=0;exitX=0;exitY=0.5;exitDx=0;exitDy=0;fontSize=24;strokeColor=default;fillColor=#FF8552;entryX=1;entryY=0.5;entryDx=0;entryDy=0;fontStyle=0" parent="1" source="tZ7djmpZorgxgHxO5tKS-116" target="tZ7djmpZorgxgHxO5tKS-114" edge="1">
          <mxGeometry relative="1" as="geometry">
            <mxPoint x="1490" y="940" as="sourcePoint" />
            <mxPoint x="1460" y="940" as="targetPoint" />
          </mxGeometry>
        </mxCell>
        <mxCell id="tZ7djmpZorgxgHxO5tKS-116" value="Modified Regression Error" style="html=1;rounded=1;fontSize=24;fillColor=#d0cee2;strokeColor=none;rotation=0;opacity=70;fontStyle=0" parent="1" vertex="1">
          <mxGeometry x="1490" y="920" width="320" height="60" as="geometry" />
        </mxCell>
        <mxCell id="tZ7djmpZorgxgHxO5tKS-123" value="" style="ellipse;fontSize=24;rotation=0;rounded=0;strokeColor=default;fontStyle=0" parent="1" vertex="1">
          <mxGeometry x="1410" y="1120" width="30" height="30" as="geometry" />
        </mxCell>
        <mxCell id="tZ7djmpZorgxgHxO5tKS-124" value="" style="endArrow=none;html=1;rounded=0;entryX=1;entryY=0;entryDx=0;entryDy=0;fontSize=24;strokeColor=default;fillColor=#FF8552;exitX=0;exitY=0.5;exitDx=0;exitDy=0;fontStyle=0" parent="1" source="GQajFrsuyB6NHDww1tuL-57" target="tZ7djmpZorgxgHxO5tKS-123" edge="1">
          <mxGeometry relative="1" as="geometry">
            <mxPoint x="1520" y="1110" as="sourcePoint" />
            <mxPoint x="1450" y="1109" as="targetPoint" />
          </mxGeometry>
        </mxCell>
        <mxCell id="tZ7djmpZorgxgHxO5tKS-126" value="" style="ellipse;fontSize=24;rotation=0;rounded=0;strokeColor=default;fontStyle=0" parent="1" vertex="1">
          <mxGeometry x="1410" y="1190" width="30" height="30" as="geometry" />
        </mxCell>
        <mxCell id="tZ7djmpZorgxgHxO5tKS-122" value="" style="endArrow=none;html=1;rounded=0;exitX=1;exitY=0.5;exitDx=0;exitDy=0;exitPerimeter=0;fontSize=24;entryX=1;entryY=0.5;entryDx=0;entryDy=0;strokeColor=default;fontStyle=0" parent="1" source="tZ7djmpZorgxgHxO5tKS-121" edge="1">
          <mxGeometry relative="1" as="geometry">
            <mxPoint x="1450" y="1040" as="sourcePoint" />
            <mxPoint x="1330" y="1170" as="targetPoint" />
          </mxGeometry>
        </mxCell>
        <mxCell id="tZ7djmpZorgxgHxO5tKS-39" value="" style="shape=requiredInterface;html=1;verticalLabelPosition=bottom;sketch=0;rotation=90;direction=south;fontSize=24;strokeColor=default;fontStyle=0" parent="1" vertex="1">
          <mxGeometry x="480" y="600" width="40" height="20" as="geometry" />
        </mxCell>
        <mxCell id="tZ7djmpZorgxgHxO5tKS-40" value="" style="endArrow=none;html=1;rounded=0;exitX=1;exitY=0.5;exitDx=0;exitDy=0;exitPerimeter=0;fontSize=24;strokeColor=default;entryX=1;entryY=0.5;entryDx=0;entryDy=0;fontStyle=0" parent="1" source="tZ7djmpZorgxgHxO5tKS-39" edge="1">
          <mxGeometry relative="1" as="geometry">
            <mxPoint x="740" y="481" as="sourcePoint" />
            <mxPoint x="450" y="610" as="targetPoint" />
          </mxGeometry>
        </mxCell>
        <mxCell id="tZ7djmpZorgxgHxO5tKS-50" value="" style="shape=requiredInterface;html=1;verticalLabelPosition=bottom;sketch=0;rotation=90;direction=south;fontSize=24;strokeColor=default;fontStyle=0" parent="1" vertex="1">
          <mxGeometry x="480" y="789" width="40" height="20" as="geometry" />
        </mxCell>
        <mxCell id="tZ7djmpZorgxgHxO5tKS-112" value="" style="shape=requiredInterface;html=1;verticalLabelPosition=bottom;sketch=0;rotation=90;direction=south;fontSize=24;strokeColor=default;fillColor=#FF8552;rounded=0;fontStyle=0" parent="1" vertex="1">
          <mxGeometry x="1360" y="940" width="40" height="20" as="geometry" />
        </mxCell>
        <mxCell id="tZ7djmpZorgxgHxO5tKS-113" value="" style="endArrow=none;html=1;rounded=0;exitX=1;exitY=0.5;exitDx=0;exitDy=0;exitPerimeter=0;fontSize=24;strokeColor=default;entryX=1;entryY=0.5;entryDx=0;entryDy=0;fontStyle=0" parent="1" source="tZ7djmpZorgxgHxO5tKS-112" edge="1">
          <mxGeometry relative="1" as="geometry">
            <mxPoint x="1440" y="810" as="sourcePoint" />
            <mxPoint x="1330" y="950" as="targetPoint" />
          </mxGeometry>
        </mxCell>
        <mxCell id="tZ7djmpZorgxgHxO5tKS-121" value="" style="shape=requiredInterface;html=1;verticalLabelPosition=bottom;sketch=0;rotation=90;direction=south;fontSize=24;strokeColor=default;fillColor=#FF8552;rounded=0;fontStyle=0" parent="1" vertex="1">
          <mxGeometry x="1360" y="1160" width="40" height="20" as="geometry" />
        </mxCell>
        <mxCell id="thf20xmfrMY9EtbRYETB-77" value="" style="endArrow=none;html=1;rounded=0;fontSize=24;strokeColor=default;entryX=1;entryY=0.5;entryDx=0;entryDy=0;exitX=1;exitY=0.5;exitDx=0;exitDy=0;exitPerimeter=0;fontStyle=0" parent="1" source="tZ7djmpZorgxgHxO5tKS-50" edge="1">
          <mxGeometry relative="1" as="geometry">
            <mxPoint x="690" y="800" as="sourcePoint" />
            <mxPoint x="450" y="800" as="targetPoint" />
          </mxGeometry>
        </mxCell>
        <mxCell id="GQajFrsuyB6NHDww1tuL-27" value="" style="endArrow=none;html=1;rounded=0;entryX=1;entryY=1;entryDx=0;entryDy=0;fontSize=24;strokeColor=default;fillColor=#FF8552;exitX=0;exitY=0.509;exitDx=0;exitDy=0;exitPerimeter=0;fontStyle=0" parent="1" source="GQajFrsuyB6NHDww1tuL-56" target="tZ7djmpZorgxgHxO5tKS-126" edge="1">
          <mxGeometry relative="1" as="geometry">
            <mxPoint x="1540" y="1230.75" as="sourcePoint" />
            <mxPoint x="1450" y="1229.75" as="targetPoint" />
          </mxGeometry>
        </mxCell>
        <mxCell id="GQajFrsuyB6NHDww1tuL-73" style="edgeStyle=orthogonalEdgeStyle;rounded=0;orthogonalLoop=1;jettySize=auto;html=1;endArrow=diamondThin;endFill=1;endSize=16;strokeColor=default;fontSize=24;fontStyle=0" parent="1" source="GQajFrsuyB6NHDww1tuL-54" edge="1">
          <mxGeometry relative="1" as="geometry">
            <mxPoint x="1000" y="1060" as="targetPoint" />
          </mxGeometry>
        </mxCell>
        <mxCell id="GQajFrsuyB6NHDww1tuL-54" value="&lt;font style=&quot;font-size: 24px;&quot;&gt;Weight λ&lt;/font&gt;" style="html=1;rounded=1;fontSize=24;fillColor=#C0BEE2;strokeColor=none;rotation=0;fontStyle=0" parent="1" vertex="1">
          <mxGeometry x="1120" y="1030" width="210" height="60" as="geometry" />
        </mxCell>
        <mxCell id="GQajFrsuyB6NHDww1tuL-78" style="edgeStyle=orthogonalEdgeStyle;rounded=0;orthogonalLoop=1;jettySize=auto;html=1;entryX=1;entryY=0.75;entryDx=0;entryDy=0;endArrow=diamondThin;endFill=1;endSize=16;strokeColor=default;fontSize=24;fontStyle=0" parent="1" source="GQajFrsuyB6NHDww1tuL-55" edge="1">
          <mxGeometry relative="1" as="geometry">
            <Array as="points">
              <mxPoint x="1080" y="1170" />
              <mxPoint x="1080" y="1075" />
            </Array>
            <mxPoint x="1000" y="1075" as="targetPoint" />
          </mxGeometry>
        </mxCell>
        <mxCell id="GQajFrsuyB6NHDww1tuL-55" value="Ranking Loss" style="html=1;rounded=1;fontSize=24;fillColor=#bac8d3;strokeColor=none;rotation=0;fontStyle=0" parent="1" vertex="1">
          <mxGeometry x="1120" y="1140" width="210" height="60" as="geometry" />
        </mxCell>
        <mxCell id="GQajFrsuyB6NHDww1tuL-56" value="Spearman Correlation" style="html=1;rounded=1;fontSize=24;fillColor=#bac8d3;strokeColor=none;rotation=0;opacity=60;fontStyle=0" parent="1" vertex="1">
          <mxGeometry x="1490" y="1200" width="320" height="60" as="geometry" />
        </mxCell>
        <mxCell id="GQajFrsuyB6NHDww1tuL-57" value="Modified Position Error" style="html=1;rounded=1;fontSize=24;fillColor=#bac8d3;strokeColor=none;rotation=0;opacity=60;fontStyle=0" parent="1" vertex="1">
          <mxGeometry x="1490" y="1080" width="320" height="60" as="geometry" />
        </mxCell>
        <mxCell id="GQajFrsuyB6NHDww1tuL-79" style="edgeStyle=orthogonalEdgeStyle;rounded=0;orthogonalLoop=1;jettySize=auto;html=1;entryX=1;entryY=0.25;entryDx=0;entryDy=0;endArrow=diamondThin;endFill=1;endSize=16;strokeColor=default;fontSize=24;fontStyle=0" parent="1" source="GQajFrsuyB6NHDww1tuL-66" edge="1">
          <mxGeometry relative="1" as="geometry">
            <Array as="points">
              <mxPoint x="1075" y="950" />
              <mxPoint x="1075" y="1045" />
            </Array>
            <mxPoint x="1000" y="1045" as="targetPoint" />
          </mxGeometry>
        </mxCell>
        <mxCell id="GQajFrsuyB6NHDww1tuL-66" value="Regression Loss" style="html=1;rounded=1;fontSize=24;fillColor=#d0cee2;strokeColor=none;rotation=0;fontStyle=0" parent="1" vertex="1">
          <mxGeometry x="1120" y="920" width="210" height="60" as="geometry" />
        </mxCell>
        <mxCell id="GQajFrsuyB6NHDww1tuL-87" value="&lt;font style=&quot;font-size: 24px;&quot;&gt;&lt;span style=&quot;font-size: 24px;&quot;&gt;.&amp;nbsp; .&amp;nbsp; .&lt;/span&gt;&lt;/font&gt;" style="text;html=1;align=center;verticalAlign=middle;resizable=0;points=[];autosize=1;strokeColor=none;fillColor=none;fontSize=24;rotation=0;horizontal=0;fontStyle=0" parent="1" vertex="1">
          <mxGeometry x="1590" y="1145" width="40" height="50" as="geometry" />
        </mxCell>
        <mxCell id="2ogsJXOfsfG8FPmJxupV-5" value="" style="ellipse;fillColor=default;strokeColor=default;fontSize=24;rotation=0;fontStyle=0" parent="1" vertex="1">
          <mxGeometry x="520" y="1045" width="30" height="30" as="geometry" />
        </mxCell>
        <mxCell id="2ogsJXOfsfG8FPmJxupV-6" value="" style="endArrow=none;html=1;rounded=0;entryX=1;entryY=0.5;entryDx=0;entryDy=0;fontSize=24;strokeColor=default;exitX=0;exitY=0.5;exitDx=0;exitDy=0;fontStyle=0" parent="1" source="tZ7djmpZorgxgHxO5tKS-67" target="2ogsJXOfsfG8FPmJxupV-5" edge="1">
          <mxGeometry relative="1" as="geometry">
            <mxPoint x="580" y="1060" as="sourcePoint" />
            <mxPoint x="700" y="1060" as="targetPoint" />
          </mxGeometry>
        </mxCell>
        <mxCell id="2ogsJXOfsfG8FPmJxupV-7" value="" style="shape=requiredInterface;html=1;verticalLabelPosition=bottom;sketch=0;rotation=90;direction=south;fontSize=24;strokeColor=default;fontStyle=0" parent="1" vertex="1">
          <mxGeometry x="480" y="1050" width="40" height="20" as="geometry" />
        </mxCell>
        <mxCell id="2ogsJXOfsfG8FPmJxupV-8" value="" style="endArrow=none;html=1;rounded=0;exitX=1;exitY=0.5;exitDx=0;exitDy=0;exitPerimeter=0;fontSize=24;strokeColor=default;entryX=1;entryY=0.5;entryDx=0;entryDy=0;fontStyle=0" parent="1" source="2ogsJXOfsfG8FPmJxupV-7" edge="1">
          <mxGeometry relative="1" as="geometry">
            <mxPoint x="730" y="930" as="sourcePoint" />
            <mxPoint x="440" y="1060" as="targetPoint" />
          </mxGeometry>
        </mxCell>
      </root>
    </mxGraphModel>
  </diagram>
</mxfile>
